<?xml version="1.0" encoding="UTF-8"?>
<svg version="1.1" xmlns="http://www.w3.org/2000/svg" width="192" height="194">
<path d="M0 0 C3.6511484 3.56154966 6.70076509 7.22091165 9.0625 11.75 C11.28068922 15.47083353 13.30881324 16.81542008 17 19 C21.05436546 21.86835076 23.31212916 24.68518435 25.75 29 C26.63945312 30.546875 26.63945312 30.546875 27.546875 32.125 C30.14353754 37.26248288 30.83689233 42.29473401 30 48 C28.91796875 50.3515625 28.91796875 50.3515625 27.5625 52.75 C25.25328285 56.86810392 24.69310357 59.91238774 24.5625 64.625 C24.35507929 70.29895999 23.1741179 73.23137981 19.375 77.4140625 C16.76924962 80.41955867 16.89796004 83.33124152 16.97265625 87.11328125 C16.98490234 88.11423828 16.99714844 89.11519531 17.00976562 90.14648438 C17.04472789 92.24551501 17.0837448 94.34448229 17.12695312 96.44335938 C17.18493446 101.76058903 17.03114003 106.00087628 15 111 C14.9071875 112.670625 14.9071875 112.670625 14.8125 114.375 C13.67776878 119.43764697 10.9107516 122.65122648 7 126 C3.45430767 127.79022701 0.45513808 128.31945031 -3.5 128.375 C-4.4178125 128.40335938 -5.335625 128.43171875 -6.28125 128.4609375 C-9 128 -9 128 -11.03515625 126.00439453 C-15.33579398 123.09693111 -19.07485698 123.42511146 -24.15625 123.46875 C-25.62608337 123.46300964 -25.62608337 123.46300964 -27.12561035 123.45715332 C-29.19328847 123.45443648 -31.26100109 123.46178164 -33.32861328 123.47851562 C-36.48938794 123.49992811 -39.6478896 123.4787058 -42.80859375 123.453125 C-44.82031751 123.45576832 -46.83203985 123.46089337 -48.84375 123.46875 C-49.78657837 123.46065308 -50.72940674 123.45255615 -51.70080566 123.44421387 C-57.12628071 123.52156179 -60.02751207 123.94954371 -64 128 C-68.18365063 130.09182531 -73.44407619 129.42935408 -78 129 C-85.90377033 125.18925359 -89.71369441 117.81871962 -93 110 C-94.26743369 105.48233757 -94.14868892 100.96737286 -94.125 96.3125 C-94.12886719 95.54099609 -94.13273437 94.76949219 -94.13671875 93.97460938 C-94.12672546 88.25345092 -94.12672546 88.25345092 -93 86 C-92.60420123 81.43435446 -92.60420123 81.43435446 -94.01953125 77.22265625 C-95.43101803 74.02291132 -95.03784693 71.28538775 -94.875 67.8125 C-94.74490956 63.27667985 -94.7763926 59.5662471 -97 55.5 C-100.45968861 49.0238569 -100.01548606 40.80887201 -98.52734375 33.76171875 C-95.5930634 26.1185334 -89.83661467 20.20714749 -83 16 C-82.34 16 -81.68 16 -81 16 C-80.814375 15.175 -80.62875 14.35 -80.4375 13.5 C-77.08129411 5.32836827 -70.12601612 -0.49659678 -62.3125 -4.3125 C-53.94680766 -6.04877577 -47.89346078 -5.76168352 -40.3125 -1.625 C-37.15653339 0.12048153 -37.15653339 0.12048153 -34 1 C-31.08963296 -0.02017418 -29.31756888 -1.39963776 -26.97265625 -3.3828125 C-19.45395002 -9.54666276 -6.67513811 -5.62043854 0 0 Z " fill="#8FEC4B" transform="translate(135,37)"/>
<path d="M0 0 C3.6511484 3.56154966 6.70076509 7.22091165 9.0625 11.75 C11.28068922 15.47083353 13.30881324 16.81542008 17 19 C21.05436546 21.86835076 23.31212916 24.68518435 25.75 29 C26.63945312 30.546875 26.63945312 30.546875 27.546875 32.125 C30.14353754 37.26248288 30.83689233 42.29473401 30 48 C28.91796875 50.3515625 28.91796875 50.3515625 27.5625 52.75 C25.25328285 56.86810392 24.69310357 59.91238774 24.5625 64.625 C24.35507929 70.29895999 23.1741179 73.23137981 19.375 77.4140625 C16.76924962 80.41955867 16.89796004 83.33124152 16.97265625 87.11328125 C16.98490234 88.11423828 16.99714844 89.11519531 17.00976562 90.14648438 C17.04472789 92.24551501 17.0837448 94.34448229 17.12695312 96.44335938 C17.18493446 101.76058903 17.03114003 106.00087628 15 111 C14.9071875 112.670625 14.9071875 112.670625 14.8125 114.375 C13.67776878 119.43764697 10.9107516 122.65122648 7 126 C3.45430767 127.79022701 0.45513808 128.31945031 -3.5 128.375 C-4.4178125 128.40335938 -5.335625 128.43171875 -6.28125 128.4609375 C-9 128 -9 128 -11.03515625 126.00439453 C-15.33579398 123.09693111 -19.07485698 123.42511146 -24.15625 123.46875 C-25.62608337 123.46300964 -25.62608337 123.46300964 -27.12561035 123.45715332 C-29.19328847 123.45443648 -31.26100109 123.46178164 -33.32861328 123.47851562 C-36.48938794 123.49992811 -39.6478896 123.4787058 -42.80859375 123.453125 C-44.82031751 123.45576832 -46.83203985 123.46089337 -48.84375 123.46875 C-49.78657837 123.46065308 -50.72940674 123.45255615 -51.70080566 123.44421387 C-57.12628071 123.52156179 -60.02751207 123.94954371 -64 128 C-68.18365063 130.09182531 -73.44407619 129.42935408 -78 129 C-85.90377033 125.18925359 -89.71369441 117.81871962 -93 110 C-94.26743369 105.48233757 -94.14868892 100.96737286 -94.125 96.3125 C-94.12886719 95.54099609 -94.13273437 94.76949219 -94.13671875 93.97460938 C-94.12672546 88.25345092 -94.12672546 88.25345092 -93 86 C-92.60420123 81.43435446 -92.60420123 81.43435446 -94.01953125 77.22265625 C-95.43101803 74.02291132 -95.03784693 71.28538775 -94.875 67.8125 C-94.74490956 63.27667985 -94.7763926 59.5662471 -97 55.5 C-100.45968861 49.0238569 -100.01548606 40.80887201 -98.52734375 33.76171875 C-95.5930634 26.1185334 -89.83661467 20.20714749 -83 16 C-82.34 16 -81.68 16 -81 16 C-80.814375 15.175 -80.62875 14.35 -80.4375 13.5 C-77.08129411 5.32836827 -70.12601612 -0.49659678 -62.3125 -4.3125 C-53.94680766 -6.04877577 -47.89346078 -5.76168352 -40.3125 -1.625 C-37.15653339 0.12048153 -37.15653339 0.12048153 -34 1 C-31.08963296 -0.02017418 -29.31756888 -1.39963776 -26.97265625 -3.3828125 C-19.45395002 -9.54666276 -6.67513811 -5.62043854 0 0 Z M-24.6875 7.5625 C-26.77582588 9.76370836 -28.01090502 11.64523633 -29.5 14.25 C-31.67821782 17.87128713 -31.67821782 17.87128713 -34.5 19 C-37.49161181 17.80335528 -37.77291736 16.98932429 -39.3125 14.25 C-41.97170369 9.54846119 -44.87864958 7.59243525 -50 6 C-54.9255443 5.10444649 -57.58056821 6.0904696 -61.6875 8.6875 C-66.06550535 11.86136806 -69.08027332 14.88062982 -71.2578125 19.8984375 C-73.25203463 23.44868945 -75.13101331 24.88806529 -78.5 27.125 C-84.31371601 30.99973909 -84.31371601 30.99973909 -87.66796875 36.9453125 C-88.56435951 42.49238942 -88.82047652 47.32865895 -86.3125 52.4375 C-84.15866659 55.10044735 -84.15866659 55.10044735 -81.3125 56.5 C-79 58 -79 58 -78.1875 61.1875 C-78.125625 62.115625 -78.06375 63.04375 -78 64 C-79.98 64.66 -81.96 65.32 -84 66 C-84.43667079 69.75536877 -84.26971955 71.56652216 -82.25 74.8125 C-77.49330427 78.01412213 -72.66500071 78.29379658 -67 78 C-64.21340297 77.09228957 -64.21340297 77.09228957 -62 76 C-62.33 75.01 -62.66 74.02 -63 73 C-64.98 72.67 -66.96 72.34 -69 72 C-69.33 70.35 -69.66 68.7 -70 67 C-65.52386208 65.26435469 -63.89245275 64.72202291 -59.1875 66.1875 C-56 68 -56 68 -54 71 C-53.21568627 77.94677871 -53.21568627 77.94677871 -56.1875 81.9375 C-61.27892714 85.67121323 -66.73842627 85.12868857 -72.8125 85.0625 C-73.99489258 85.05573242 -73.99489258 85.05573242 -75.20117188 85.04882812 C-77.13414761 85.03711312 -79.06708393 85.01917998 -81 85 C-83.83167476 92.54732667 -84.68882487 100.64324628 -81.7265625 108.28515625 C-79.77837548 111.89167807 -77.90544045 115.09455955 -75 118 C-71.03926309 117.85330604 -68.7562876 117.67225565 -65.75 115 C-64.88375 114.01 -64.88375 114.01 -64 113 C-60.74985124 111.91661708 -58.35463664 111.86685426 -54.9375 111.875 C-53.87402344 111.87242187 -52.81054688 111.86984375 -51.71484375 111.8671875 C-48.91457545 111.96730224 -46.2682841 112.1893313 -43.49609375 112.51953125 C-35.42317733 113.38096817 -27.27340711 112.93342689 -19.171875 112.69726562 C-17.92148438 112.67986328 -16.67109375 112.66246094 -15.3828125 112.64453125 C-13.68729248 112.60356323 -13.68729248 112.60356323 -11.95751953 112.56176758 C-8.33782195 113.09811867 -7.36287553 114.30991174 -5 117 C-2.45709375 117.58350505 -2.45709375 117.58350505 0 117 C4.63757086 113.3812894 5.14714027 107.50853924 6 102 C6.22392247 98.97704664 6.29861547 95.96820257 6.3125 92.9375 C6.31789795 92.19935059 6.3232959 91.46120117 6.32885742 90.70068359 C6.27889529 86.94440055 6.1313719 85.19705785 4 82 C2.02438289 81.74912694 2.02438289 81.74912694 -0.1875 82 C-4.97814219 82.15453684 -7.82912977 81.38335442 -12 79 C-14.35645355 76.34898976 -14 74.67210926 -14 71.0625 C-13.49521103 67.85348442 -12.64173504 66.14430707 -10.25 63.9375 C-7 62 -7 62 -4.125 62.1875 C-3.42375 62.455625 -2.7225 62.72375 -2 63 C-1.75 65.3125 -1.75 65.3125 -2 68 C-4 69.6875 -4 69.6875 -6 71 C-6 71.66 -6 72.32 -6 73 C0.32665233 74.19073048 4.35675711 74.27308087 10 71 C12.51107633 68.40792121 13 67.65126288 13 64 C11.35 63.34 9.7 62.68 8 62 C7.625 59.75 7.625 59.75 8 57 C10.75 55 10.75 55 14 53 C16.72031306 50.63762287 17.84655473 49.0240123 18.3828125 45.4453125 C18.62935396 39.38039268 18.15482165 35.52142356 14 31 C13.34 31 12.68 31 12 31 C12 30.34 12 29.68 12 29 C9.0012059 27.22089892 5.91939232 25.6440367 2.8203125 24.046875 C-0.58229092 21.57739551 -1.00275893 20.00446542 -2 16 C-4.09587005 11.51782098 -6.06499846 8.58217077 -10.3125 5.9375 C-15.72017028 4.56266857 -19.70749335 4.6671473 -24.6875 7.5625 Z " fill="#020301" transform="translate(135,37)"/>
<path d="M0 0 C3.6511484 3.56154966 6.70076509 7.22091165 9.0625 11.75 C11.28068922 15.47083353 13.30881324 16.81542008 17 19 C21.05436546 21.86835076 23.31212916 24.68518435 25.75 29 C26.63945312 30.546875 26.63945312 30.546875 27.546875 32.125 C30.14353754 37.26248288 30.83689233 42.29473401 30 48 C28.91796875 50.3515625 28.91796875 50.3515625 27.5625 52.75 C25.25328285 56.86810392 24.69310357 59.91238774 24.5625 64.625 C24.35507929 70.29895999 23.1741179 73.23137981 19.375 77.4140625 C16.76924962 80.41955867 16.89796004 83.33124152 16.97265625 87.11328125 C16.98490234 88.11423828 16.99714844 89.11519531 17.00976562 90.14648438 C17.04472789 92.24551501 17.0837448 94.34448229 17.12695312 96.44335938 C17.18493446 101.76058903 17.03114003 106.00087628 15 111 C14.9071875 112.670625 14.9071875 112.670625 14.8125 114.375 C13.67776878 119.43764697 10.9107516 122.65122648 7 126 C3.45430767 127.79022701 0.45513808 128.31945031 -3.5 128.375 C-4.4178125 128.40335938 -5.335625 128.43171875 -6.28125 128.4609375 C-9 128 -9 128 -11.03515625 126.00439453 C-15.33579398 123.09693111 -19.07485698 123.42511146 -24.15625 123.46875 C-25.62608337 123.46300964 -25.62608337 123.46300964 -27.12561035 123.45715332 C-29.19328847 123.45443648 -31.26100109 123.46178164 -33.32861328 123.47851562 C-36.48938794 123.49992811 -39.6478896 123.4787058 -42.80859375 123.453125 C-44.82031751 123.45576832 -46.83203985 123.46089337 -48.84375 123.46875 C-49.78657837 123.46065308 -50.72940674 123.45255615 -51.70080566 123.44421387 C-57.12628071 123.52156179 -60.02751207 123.94954371 -64 128 C-68.18365063 130.09182531 -73.44407619 129.42935408 -78 129 C-85.90377033 125.18925359 -89.71369441 117.81871962 -93 110 C-94.26743369 105.48233757 -94.14868892 100.96737286 -94.125 96.3125 C-94.12886719 95.54099609 -94.13273437 94.76949219 -94.13671875 93.97460938 C-94.12672546 88.25345092 -94.12672546 88.25345092 -93 86 C-92.60420123 81.43435446 -92.60420123 81.43435446 -94.01953125 77.22265625 C-95.43101803 74.02291132 -95.03784693 71.28538775 -94.875 67.8125 C-94.74490956 63.27667985 -94.7763926 59.5662471 -97 55.5 C-100.45968861 49.0238569 -100.01548606 40.80887201 -98.52734375 33.76171875 C-95.5930634 26.1185334 -89.83661467 20.20714749 -83 16 C-82.34 16 -81.68 16 -81 16 C-80.814375 15.175 -80.62875 14.35 -80.4375 13.5 C-77.08129411 5.32836827 -70.12601612 -0.49659678 -62.3125 -4.3125 C-53.94680766 -6.04877577 -47.89346078 -5.76168352 -40.3125 -1.625 C-37.15653339 0.12048153 -37.15653339 0.12048153 -34 1 C-31.08963296 -0.02017418 -29.31756888 -1.39963776 -26.97265625 -3.3828125 C-19.45395002 -9.54666276 -6.67513811 -5.62043854 0 0 Z M-74 7 C-77.57219625 12.13365116 -77.57219625 12.13365116 -79 18 C-79.66 18.185625 -80.32 18.37125 -81 18.5625 C-87.94699162 21.89126682 -92.79149604 27.06963145 -96 34 C-96.84298574 36.38084878 -96.84298574 36.38084878 -97 39 C-97.06316406 39.64582031 -97.12632813 40.29164062 -97.19140625 40.95703125 C-97.49337125 46.51903173 -96.27274843 50.59526151 -93.97265625 55.640625 C-91.62293055 61.34036124 -91.9829442 66.77600926 -92.16015625 72.84375 C-91.99758084 76.04767508 -91.17841292 78.06130222 -90 81 C-90.2421875 83.03515625 -90.2421875 83.03515625 -90.875 85.0625 C-93.98408064 97.29561468 -91.58119804 108.38066631 -85.25390625 119.08984375 C-82.50573152 123.27631553 -79.85290828 125.64570001 -75 127 C-69.27449119 127.62460096 -66.49245792 126.55217603 -62 123 C-61.34 122.34 -60.68 121.68 -60 121 C-57.45889424 120.82485369 -55.03839547 120.7681714 -52.5 120.8125 C-51.49453125 120.8134668 -51.49453125 120.8134668 -50.46875 120.81445312 C-46.65605492 120.84694769 -42.92921608 121.09339131 -39.140625 121.5234375 C-32.91993327 122.19395629 -26.74585762 121.95919673 -20.50390625 121.69726562 C-14.65682591 121.5820312 -11.76531201 122.31901048 -7 126 C-3.07034728 126.91740054 0.38176135 126.19395722 4.1875 125 C11.13910994 120.05663293 12.95729216 112.98380158 14.50390625 104.875 C15.46884889 97.33781024 15.9584716 89.23067305 14.2734375 81.79296875 C14 79 14 79 15.3984375 76.76953125 C16.05070312 76.12371094 16.70296875 75.47789063 17.375 74.8125 C20.33718501 71.83701196 20.33718501 71.83701196 22 68 C21.9695332 66.41572652 21.90338887 64.83195762 21.8125 63.25 C21.73507203 57.9384411 23.10848951 55.3810765 26 51 C27.76156138 45.46847286 27.61053241 39.93335262 25.875 34.4375 C21.63637886 26.66669457 16.72833967 19.90944656 8 17 C6.75390625 14.890625 6.75390625 14.890625 5.5625 12.25 C1.90619995 4.66776125 -1.95655061 -0.0036616 -10 -3 C-17.42680075 -4.23958113 -23.57661058 -2.81026707 -30 1 C-32.94314815 3.08309934 -32.94314815 3.08309934 -35 5 C-35.928125 4.13375 -35.928125 4.13375 -36.875 3.25 C-49.50907196 -5.84653181 -62.9218337 -3.78663561 -74 7 Z " fill="#F8F8F8" transform="translate(135,37)"/>
<path d="M0 0 C0.93199219 -0.00257812 1.86398438 -0.00515625 2.82421875 -0.0078125 C5.3125 0.125 5.3125 0.125 8.3125 1.125 C9 3.4375 9 3.4375 9.3125 6.125 C8.21484375 7.75390625 8.21484375 7.75390625 6.3125 9.125 C3.4921875 9.6015625 3.4921875 9.6015625 0.1875 9.75 C-3.48020131 9.93470438 -7.08532551 10.16962994 -10.72265625 10.66015625 C-17.14413781 11.39722593 -23.55169905 11.13493111 -30 10.9375 C-31.26134766 10.91880859 -32.52269531 10.90011719 -33.82226562 10.88085938 C-35.03205078 10.84412109 -36.24183594 10.80738281 -37.48828125 10.76953125 C-38.58309814 10.74221924 -39.67791504 10.71490723 -40.8059082 10.68676758 C-44.26865697 10.0117032 -45.47988126 8.80790017 -47.6875 6.125 C-47.0275 4.475 -46.3675 2.825 -45.6875 1.125 C-44.68895996 1.13023682 -43.69041992 1.13547363 -42.66162109 1.14086914 C-38.93799749 1.15904242 -35.21437776 1.1704769 -31.49072266 1.17993164 C-29.88264302 1.18494375 -28.2745679 1.19175519 -26.66650391 1.20043945 C-24.34797039 1.21264226 -22.02949741 1.21825964 -19.7109375 1.22265625 C-18.99819672 1.22781754 -18.28545593 1.23297882 -17.55111694 1.23829651 C-11.61579298 1.23895553 -5.92343315 -0.01652283 0 0 Z " fill="#020401" transform="translate(124.6875,72.875)"/>
<path d="M0 0 C3 0.125 3 0.125 4 1.125 C4.37086093 6.9660596 4.37086093 6.9660596 4 9.125 C1 11.125 1 11.125 -1.0625 10.875 C-3 10.125 -3 10.125 -5 8.125 C-4.30300807 0.179292 -4.30300807 0.179292 0 0 Z " fill="#060A03" transform="translate(83,51.875)"/>
<path d="M0 0 C2.375 0.8125 2.375 0.8125 3.375 2.8125 C3.5625 5.8125 3.5625 5.8125 3.375 8.8125 C1.375 10.8125 1.375 10.8125 -1.125 11.0625 C-3.625 10.8125 -3.625 10.8125 -5.625 8.8125 C-5.96161952 5.6482765 -6.12443411 3.62736618 -4.4375 0.875 C-2.625 -0.1875 -2.625 -0.1875 0 0 Z " fill="#030602" transform="translate(121.625,51.1875)"/>
</svg>
